<svg width="46" height="46" viewBox="0 0 46 46" fill="none" xmlns="http://www.w3.org/2000/svg">
<rect width="46" height="46" rx="4" fill="#00488D" fill-opacity="0.1"/>
<path d="M30 20L28.75 17.25L26 16L28.75 14.75L30 12L31.25 14.75L34 16L31.25 17.25L30 20ZM30 34L28.75 31.25L26 30L28.75 28.75L30 26L31.25 28.75L34 30L31.25 31.25L30 34ZM20 31L17.5 25.5L12 23L17.5 20.5L20 15L22.5 20.5L28 23L22.5 25.5L20 31ZM20 26.15L21 24L23.15 23L21 22L20 19.85L19 22L16.85 23L19 24L20 26.15Z" fill="#00488D"/>
</svg>
